<svg xmlns="http://www.w3.org/2000/svg" viewBox="0 0 1200 900" role="img" aria-labelledby="title desc">
  <title id="title">GLOSSY GIRLS CLUB 2.0 银色圆形四层礼盒示意</title>
  <desc id="desc">本地生成的银色圆形四层礼盒视觉，用于展示 Bestie Gifting 的礼赠结构。</desc>
  <defs>
    <radialGradient id="shell" cx="42%" cy="22%" r="80%">
      <stop offset="0%" stop-color="#ffffff"/>
      <stop offset="28%" stop-color="#f4eee9"/>
      <stop offset="55%" stop-color="#d8dbe0"/>
      <stop offset="78%" stop-color="#b8bec8"/>
      <stop offset="100%" stop-color="#8c939d"/>
    </radialGradient>
    <linearGradient id="rose" x1="0%" x2="100%" y1="0%" y2="100%">
      <stop offset="0%" stop-color="#fff6f1"/>
      <stop offset="44%" stop-color="#f6b8a9"/>
      <stop offset="100%" stop-color="#b77465"/>
    </linearGradient>
    <filter id="softShadow" x="-20%" y="-20%" width="140%" height="150%">
      <feDropShadow dx="0" dy="28" stdDeviation="24" flood-color="#2a1f1c" flood-opacity=".24"/>
    </filter>
  </defs>
  <rect width="1200" height="900" fill="#fffaf8"/>
  <path d="M0 672 C208 584 342 760 540 656 C744 548 860 636 1200 500 L1200 900 L0 900 Z" fill="#f6d6ce" opacity=".5"/>
  <g filter="url(#softShadow)">
    <ellipse cx="600" cy="680" rx="380" ry="86" fill="#8c7c78" opacity=".18"/>
    <ellipse cx="600" cy="602" rx="390" ry="90" fill="url(#shell)" stroke="#ffffff" stroke-width="7"/>
    <path d="M230 486 C230 596 970 596 970 486 L970 600 C970 720 230 720 230 600 Z" fill="#c7ccd3"/>
    <ellipse cx="600" cy="486" rx="370" ry="88" fill="#f8f9fa" stroke="#c8cdd4" stroke-width="8"/>
    <ellipse cx="600" cy="448" rx="326" ry="68" fill="#dde1e7" stroke="#ffffff" stroke-width="4"/>
    <ellipse cx="600" cy="376" rx="300" ry="70" fill="url(#shell)" stroke="#ffffff" stroke-width="6"/>
    <path d="M300 296 C300 382 900 382 900 296 L900 374 C900 472 300 472 300 374 Z" fill="#cfd3da"/>
    <ellipse cx="600" cy="296" rx="300" ry="68" fill="#fafbfc" stroke="#c8cdd4" stroke-width="7"/>
    <ellipse cx="600" cy="266" rx="240" ry="54" fill="#e6e9ee" stroke="#ffffff" stroke-width="4"/>
    <ellipse cx="600" cy="216" rx="216" ry="56" fill="url(#shell)" stroke="#ffffff" stroke-width="6"/>
    <path d="M384 166 C384 224 816 224 816 166 L816 216 C816 286 384 286 384 216 Z" fill="#d4d8df"/>
    <ellipse cx="600" cy="166" rx="216" ry="52" fill="#fbfbfc" stroke="#cbd0d7" stroke-width="6"/>
    <circle cx="600" cy="400" r="102" fill="#fffaf8" stroke="#d7a69b" stroke-width="5"/>
    <circle cx="600" cy="400" r="76" fill="url(#rose)"/>
    <text x="600" y="382" text-anchor="middle" font-family="Georgia, 'Songti SC', serif" font-size="34" fill="#3b3130">BESTIE</text>
    <text x="600" y="424" text-anchor="middle" font-family="'PingFang SC', sans-serif" font-size="25" fill="#3b3130">同闪礼</text>
  </g>
  <g font-family="'PingFang SC', sans-serif" fill="#463a38">
    <g transform="translate(110 130)">
      <circle cx="0" cy="0" r="9" fill="#d38f81"/>
      <text x="28" y="9" font-size="27">Tier 1 高光入门礼</text>
    </g>
    <g transform="translate(120 205)">
      <circle cx="0" cy="0" r="9" fill="#bfc5cf"/>
      <text x="28" y="9" font-size="27">Tier 2 闺蜜同闪礼</text>
    </g>
    <g transform="translate(906 132)">
      <circle cx="0" cy="0" r="9" fill="#d38f81"/>
      <text x="28" y="9" font-size="27">Tier 3 玫瑰高光礼</text>
    </g>
    <g transform="translate(875 208)">
      <circle cx="0" cy="0" r="9" fill="#bfc5cf"/>
      <text x="28" y="9" font-size="27">Tier 4 PR 礼盒</text>
    </g>
  </g>
</svg>
