<?xml version="1.0" encoding="UTF-8"?><svg xmlns="http://www.w3.org/2000/svg" viewBox="0 0 1200 800" role="img" aria-label="电商详情 Demo"><defs><linearGradient id="bg" x1="0%" x2="100%" y1="0%" y2="100%"><stop offset="0%" stop-color="#fffaf8"/><stop offset="48%" stop-color="#f6d7cf"/><stop offset="100%" stop-color="#dfe6eb"/></linearGradient><filter id="s" x="-20%" y="-20%" width="140%" height="150%"><feDropShadow dx="0" dy="24" stdDeviation="20" flood-color="#3b2d2b" flood-opacity=".18"/></filter></defs><rect width="1200" height="800" fill="url(#bg)"/><g filter="url(#s)"><rect x="70" y="70" width="1060" height="660" fill="#fffefd" stroke="#2d2625" stroke-width="4"/><text x="120" y="150" font-family="Georgia, Songti SC, serif" font-size="46" fill="#2d2625">电商详情 Demo</text><text x="120" y="196" font-family="PingFang SC, sans-serif" font-size="24" fill="#9f5a52">Detail Page</text><rect x="90" y="230" width="210" height="118" fill="#fffefd" stroke="#d8cbc7"/><text x="112" y="275" font-family="PingFang SC, sans-serif" font-size="18" fill="#2d2625">模块 1</text><text x="112" y="312" font-family="PingFang SC, sans-serif" font-size="15" fill="#6f6360">话题 / 文案 / CTA</text><rect x="345" y="230" width="210" height="118" fill="#fffefd" stroke="#d8cbc7"/><text x="367" y="275" font-family="PingFang SC, sans-serif" font-size="18" fill="#2d2625">模块 2</text><text x="367" y="312" font-family="PingFang SC, sans-serif" font-size="15" fill="#6f6360">话题 / 文案 / CTA</text><rect x="600" y="230" width="210" height="118" fill="#fffefd" stroke="#d8cbc7"/><text x="622" y="275" font-family="PingFang SC, sans-serif" font-size="18" fill="#2d2625">模块 3</text><text x="622" y="312" font-family="PingFang SC, sans-serif" font-size="15" fill="#6f6360">话题 / 文案 / CTA</text><rect x="855" y="230" width="210" height="118" fill="#fffefd" stroke="#d8cbc7"/><text x="877" y="275" font-family="PingFang SC, sans-serif" font-size="18" fill="#2d2625">模块 4</text><text x="877" y="312" font-family="PingFang SC, sans-serif" font-size="15" fill="#6f6360">话题 / 文案 / CTA</text><rect x="90" y="400" width="210" height="118" fill="#fffefd" stroke="#d8cbc7"/><text x="112" y="445" font-family="PingFang SC, sans-serif" font-size="18" fill="#2d2625">模块 5</text><text x="112" y="482" font-family="PingFang SC, sans-serif" font-size="15" fill="#6f6360">话题 / 文案 / CTA</text><rect x="345" y="400" width="210" height="118" fill="#fffefd" stroke="#d8cbc7"/><text x="367" y="445" font-family="PingFang SC, sans-serif" font-size="18" fill="#2d2625">模块 6</text><text x="367" y="482" font-family="PingFang SC, sans-serif" font-size="15" fill="#6f6360">话题 / 文案 / CTA</text><rect x="600" y="400" width="210" height="118" fill="#fffefd" stroke="#d8cbc7"/><text x="622" y="445" font-family="PingFang SC, sans-serif" font-size="18" fill="#2d2625">模块 7</text><text x="622" y="482" font-family="PingFang SC, sans-serif" font-size="15" fill="#6f6360">话题 / 文案 / CTA</text><rect x="855" y="400" width="210" height="118" fill="#fffefd" stroke="#d8cbc7"/><text x="877" y="445" font-family="PingFang SC, sans-serif" font-size="18" fill="#2d2625">模块 8</text><text x="877" y="482" font-family="PingFang SC, sans-serif" font-size="15" fill="#6f6360">话题 / 文案 / CTA</text></g></svg>